<svg xmlns="http://www.w3.org/2000/svg" viewBox="0 0 512 512">
  <defs>
    <linearGradient id="g" x1="0%" y1="0%" x2="100%" y2="100%">
      <stop offset="0%" stop-color="#4f7ef8"/>
      <stop offset="100%" stop-color="#7b3fe4"/>
    </linearGradient>
  </defs>
  <rect width="512" height="512" rx="96" fill="url(#g)"/>
  <!-- Abstract AI brain / circuit nodes -->
  <circle cx="256" cy="256" r="80" fill="none" stroke="white" stroke-width="16" stroke-opacity="0.9"/>
  <circle cx="256" cy="256" r="28" fill="white" fill-opacity="0.95"/>
  <!-- Orbiting nodes -->
  <circle cx="256" cy="140" r="16" fill="white" fill-opacity="0.9"/>
  <circle cx="256" cy="372" r="16" fill="white" fill-opacity="0.9"/>
  <circle cx="140" cy="256" r="16" fill="white" fill-opacity="0.9"/>
  <circle cx="372" cy="256" r="16" fill="white" fill-opacity="0.9"/>
  <circle cx="166" cy="166" r="12" fill="white" fill-opacity="0.7"/>
  <circle cx="346" cy="166" r="12" fill="white" fill-opacity="0.7"/>
  <circle cx="166" cy="346" r="12" fill="white" fill-opacity="0.7"/>
  <circle cx="346" cy="346" r="12" fill="white" fill-opacity="0.7"/>
  <!-- Connection lines -->
  <line x1="256" y1="176" x2="256" y2="140" stroke="white" stroke-width="4" stroke-opacity="0.6"/>
  <line x1="256" y1="336" x2="256" y2="372" stroke="white" stroke-width="4" stroke-opacity="0.6"/>
  <line x1="176" y1="256" x2="140" y2="256" stroke="white" stroke-width="4" stroke-opacity="0.6"/>
  <line x1="336" y1="256" x2="372" y2="256" stroke="white" stroke-width="4" stroke-opacity="0.6"/>
  <line x1="199" y1="199" x2="178" y2="178" stroke="white" stroke-width="3" stroke-opacity="0.5"/>
  <line x1="313" y1="199" x2="334" y2="178" stroke="white" stroke-width="3" stroke-opacity="0.5"/>
  <line x1="199" y1="313" x2="178" y2="334" stroke="white" stroke-width="3" stroke-opacity="0.5"/>
  <line x1="313" y1="313" x2="334" y2="334" stroke="white" stroke-width="3" stroke-opacity="0.5"/>
</svg>
